<svg width="88" height="89" viewBox="0 0 88 89" fill="none" xmlns="http://www.w3.org/2000/svg">
<g filter="url(#filter0_d)">
<path d="M34.6116 59.5169C34.6116 59.7589 34.3484 59.9524 34.0164 59.9524C33.6386 59.9887 33.3754 59.7951 33.3754 59.5169C33.3754 59.275 33.6386 59.0814 33.9706 59.0814C34.314 59.0451 34.6116 59.2387 34.6116 59.5169ZM31.0516 58.9725C30.9715 59.2145 31.2005 59.4927 31.5439 59.5653C31.8415 59.6863 32.1849 59.5653 32.2536 59.3233C32.3222 59.0814 32.1048 58.8032 31.7614 58.6943C31.4637 58.6096 31.1318 58.7306 31.0516 58.9725ZM36.1112 58.7669C35.7792 58.8516 35.5503 59.0814 35.5846 59.3596C35.619 59.6016 35.9166 59.7589 36.26 59.6742C36.5919 59.5895 36.8209 59.3596 36.7865 59.1177C36.7522 58.8878 36.4431 58.7306 36.1112 58.7669ZM43.6432 12.41C27.7664 12.41 15.6212 25.1485 15.6212 41.9274C15.6212 55.3433 23.6112 66.8237 35.0237 70.8642C36.4889 71.1424 37.004 70.1867 37.004 69.4004C37.004 68.6504 36.9697 64.5131 36.9697 61.9727C36.9697 61.9727 28.9569 63.7873 27.2742 58.3677C27.2742 58.3677 25.9692 54.8473 24.0919 53.9401C24.0919 53.9401 21.4706 52.0408 24.2751 52.0771C24.2751 52.0771 27.1254 52.319 28.6936 55.1982C31.2005 59.8677 35.4015 58.5249 37.0384 57.7265C37.3017 55.7909 38.0457 54.4481 38.8699 53.6497C32.4711 52.8997 26.015 51.9198 26.015 40.2822C26.015 36.9554 26.885 35.286 28.7165 33.1569C28.4189 32.3706 27.4459 29.1285 29.0141 24.9428C31.4065 24.1565 36.9125 28.2091 36.9125 28.2091C39.2018 27.5317 41.6629 27.1808 44.1011 27.1808C46.5393 27.1808 49.0004 27.5317 51.2898 28.2091C51.2898 28.2091 56.7957 24.1444 59.1881 24.9428C60.7564 29.1406 59.7834 32.3706 59.4858 33.1569C61.3173 35.2981 62.4391 36.9675 62.4391 40.2822C62.4391 51.9561 55.6968 52.8876 49.298 53.6497C50.3511 54.6054 51.244 56.42 51.244 59.2629C51.244 63.3396 51.2096 68.3842 51.2096 69.3762C51.2096 70.1625 51.7362 71.1182 53.19 70.84C64.6369 66.8237 72.3979 55.3433 72.3979 41.9274C72.3979 25.1485 59.5201 12.41 43.6432 12.41ZM26.7476 54.1336C26.5988 54.2546 26.6331 54.5328 26.8277 54.7627C27.0109 54.9562 27.2742 55.0409 27.423 54.8836C27.5718 54.7627 27.5374 54.4844 27.3428 54.2546C27.1597 54.061 26.8964 53.9763 26.7476 54.1336ZM25.5113 53.1537C25.4312 53.311 25.5457 53.5046 25.7746 53.6255C25.9578 53.7465 26.1867 53.7102 26.2668 53.5408C26.347 53.3836 26.2325 53.19 26.0036 53.069C25.7746 52.9965 25.5915 53.0328 25.5113 53.1537ZM29.2201 57.4604C29.037 57.6176 29.1057 57.9805 29.3689 58.2104C29.6322 58.4886 29.9642 58.5249 30.113 58.3314C30.2618 58.1741 30.1931 57.8112 29.9642 57.5813C29.7124 57.3031 29.3689 57.2668 29.2201 57.4604ZM27.9152 55.6821C27.732 55.803 27.732 56.1176 27.9152 56.3958C28.0983 56.674 28.4074 56.795 28.5562 56.674C28.7394 56.5168 28.7394 56.2022 28.5562 55.924C28.396 55.6458 28.0983 55.5248 27.9152 55.6821Z" fill="white"/>
</g>
<defs>
<filter id="filter0_d" x="0.954653" y="0.410119" width="86.1098" height="87.8366" filterUnits="userSpaceOnUse" color-interpolation-filters="sRGB">
<feFlood flood-opacity="0" result="BackgroundImageFix"/>
<feColorMatrix in="SourceAlpha" type="matrix" values="0 0 0 0 0 0 0 0 0 0 0 0 0 0 0 0 0 0 127 0"/>
<feOffset dy="2.66665"/>
<feGaussianBlur stdDeviation="7.33328"/>
<feColorMatrix type="matrix" values="0 0 0 0 0 0 0 0 0 0 0 0 0 0 0 0 0 0 0.25 0"/>
<feBlend mode="normal" in2="BackgroundImageFix" result="effect1_dropShadow"/>
<feBlend mode="normal" in="SourceGraphic" in2="effect1_dropShadow" result="shape"/>
</filter>
</defs>
</svg>
