<svg width="86" height="83" viewBox="0 0 86 83" fill="none" xmlns="http://www.w3.org/2000/svg">
<g filter="url(#filter0_d)">
<path d="M66.4526 12.4275H19.3256C17.1662 12.4275 15.4117 14.1257 15.4117 16.2104V61.1132C15.4117 63.1979 17.1662 64.8961 19.3256 64.8961H66.4526C68.612 64.8961 70.3788 63.1979 70.3788 61.1132V16.2104C70.3788 14.1257 68.612 12.4275 66.4526 12.4275ZM32.0245 57.4006H23.8776V32.3609H32.0368V57.4006H32.0245ZM27.9511 28.941C25.3377 28.941 23.2273 26.9149 23.2273 24.432C23.2273 21.9491 25.3377 19.923 27.9511 19.923C30.5522 19.923 32.6748 21.9491 32.6748 24.432C32.6748 26.9266 30.5644 28.941 27.9511 28.941ZM62.5632 57.4006H54.4162V45.2204C54.4162 42.3159 54.3549 38.5798 50.1833 38.5798C45.9381 38.5798 45.2878 41.742 45.2878 45.0096V57.4006H37.1409V32.3609H44.9565V35.7807H45.0669C46.1589 33.8131 48.8214 31.7402 52.7844 31.7402C61.0295 31.7402 62.5632 36.9285 62.5632 43.6744V57.4006Z" fill="white"/>
</g>
<defs>
<filter id="filter0_d" x="0.745119" y="0.427575" width="84.3002" height="81.8017" filterUnits="userSpaceOnUse" color-interpolation-filters="sRGB">
<feFlood flood-opacity="0" result="BackgroundImageFix"/>
<feColorMatrix in="SourceAlpha" type="matrix" values="0 0 0 0 0 0 0 0 0 0 0 0 0 0 0 0 0 0 127 0"/>
<feOffset dy="2.66665"/>
<feGaussianBlur stdDeviation="7.33328"/>
<feColorMatrix type="matrix" values="0 0 0 0 0 0 0 0 0 0 0 0 0 0 0 0 0 0 0.25 0"/>
<feBlend mode="normal" in2="BackgroundImageFix" result="effect1_dropShadow"/>
<feBlend mode="normal" in="SourceGraphic" in2="effect1_dropShadow" result="shape"/>
</filter>
</defs>
</svg>
