<svg width="82" height="55" viewBox="0 0 82 55" fill="none" xmlns="http://www.w3.org/2000/svg">
<path fill-rule="evenodd" clip-rule="evenodd" d="M10.08 48.816C12.96 44.88 14.4 40.176 14.4 34.704V0C10.464 0 7.056 1.968 4.176 5.904C1.392 9.744 0 14.4 0 19.872V54.576C3.936 54.576 7.296 52.656 10.08 48.816Z" fill="white"/>
<path d="M34.9528 27.896C34.9528 29.192 34.4968 30.296 33.5848 31.208C32.6728 32.12 31.5688 32.576 30.2728 32.576H24.6928C23.3968 32.576 22.2928 32.12 21.3808 31.208C20.4688 30.296 20.0128 29.192 20.0128 27.896V23.612C20.0128 22.316 20.4688 21.212 21.3808 20.3C22.2928 19.388 23.3968 18.932 24.6928 18.932H30.7408C30.7408 19.916 30.2608 20.744 29.3008 21.416C28.3408 22.088 27.1648 22.448 25.7728 22.496L24.6928 22.532C23.9728 22.556 23.6128 22.916 23.6128 23.612V27.896C23.6128 28.616 23.9728 28.976 24.6928 28.976H30.2728C30.9928 28.976 31.3528 28.616 31.3528 27.896L31.3888 18.86C31.3888 17.492 31.7368 16.328 32.4328 15.368C33.1288 14.384 33.9688 13.892 34.9528 13.892V27.896ZM52.0036 32.576H41.7436C40.4476 32.576 39.3436 32.12 38.4316 31.208C37.5196 30.296 37.0636 29.192 37.0636 27.896V23.612C37.0636 22.316 37.5196 21.212 38.4316 20.3C39.3436 19.388 40.4476 18.932 41.7436 18.932H47.3236C48.6196 18.932 49.7236 19.388 50.6356 20.3C51.5476 21.212 52.0036 22.316 52.0036 23.612V23.648C52.0036 24.944 51.5476 26.048 50.6356 26.96C49.7236 27.872 48.6196 28.328 47.3236 28.328H42.1396C42.1396 27.344 42.6196 26.504 43.5796 25.808C44.5636 25.112 45.7396 24.764 47.1076 24.764L47.3236 24.728C48.0436 24.608 48.4036 24.248 48.4036 23.648V23.612C48.4036 22.892 48.0436 22.532 47.3236 22.532H41.7436C41.0236 22.532 40.6636 22.892 40.6636 23.612V27.896C40.6636 28.616 41.0236 28.976 41.7436 28.976L47.0356 29.012C48.4036 29.012 49.5676 29.36 50.5276 30.056C51.5116 30.752 52.0036 31.592 52.0036 32.576ZM69.0544 27.896C69.0544 29.192 68.5984 30.296 67.6864 31.208C66.7744 32.12 65.6704 32.576 64.3744 32.576H58.7944C57.4984 32.576 56.3944 32.12 55.4824 31.208C54.5704 30.296 54.1144 29.192 54.1144 27.896V18.932C55.0984 18.932 55.9264 19.424 56.5984 20.408C57.2944 21.368 57.6544 22.532 57.6784 23.9L57.7144 27.896C57.7144 28.616 58.0744 28.976 58.7944 28.976H64.3744C65.0944 28.976 65.4544 28.616 65.4544 27.896L65.4904 23.9C65.5144 22.532 65.8624 21.368 66.5344 20.408C67.2304 19.424 68.0704 18.932 69.0544 18.932V27.896Z" fill="white"/>
<path d="M69.342 15.416L64.632 13.346V12.846L69.342 10.496V11.276L65.572 13.056L69.342 14.636V15.416ZM73.7246 9.43599L71.0646 16.576H70.2046L72.8646 9.43599H73.7246ZM74.5753 14.636L78.3453 13.066L74.5753 11.276V10.496L79.2853 12.846V13.346L74.5753 15.416V14.636Z" fill="white"/>
<path d="M69.342 15.416L69.2414 15.6449L69.592 15.7989V15.416H69.342ZM64.632 13.346H64.382V13.5092L64.5314 13.5749L64.632 13.346ZM64.632 12.846L64.5203 12.6223L64.382 12.6913V12.846H64.632ZM69.342 10.496H69.592V10.0919L69.2303 10.2723L69.342 10.496ZM69.342 11.276L69.4487 11.5021L69.592 11.4344V11.276H69.342ZM65.572 13.056L65.4652 12.8299L64.9576 13.0696L65.4753 13.2866L65.572 13.056ZM69.342 14.636H69.592V14.4697L69.4386 14.4054L69.342 14.636ZM69.4425 15.1871L64.7325 13.1171L64.5314 13.5749L69.2414 15.6449L69.4425 15.1871ZM64.882 13.346V12.846H64.382V13.346H64.882ZM64.7436 13.0697L69.4536 10.7197L69.2303 10.2723L64.5203 12.6223L64.7436 13.0697ZM69.092 10.496V11.276H69.592V10.496H69.092ZM69.2352 11.0499L65.4652 12.8299L65.6787 13.2821L69.4487 11.5021L69.2352 11.0499ZM65.4753 13.2866L69.2453 14.8666L69.4386 14.4054L65.6686 12.8254L65.4753 13.2866ZM69.092 14.636V15.416H69.592V14.636H69.092ZM73.7246 9.43599L73.9589 9.52327L74.0845 9.18599H73.7246V9.43599ZM71.0646 16.576V16.826H71.2383L71.2989 16.6633L71.0646 16.576ZM70.2046 16.576L69.9703 16.4887L69.8447 16.826H70.2046V16.576ZM72.8646 9.43599V9.18599H72.691L72.6303 9.34871L72.8646 9.43599ZM73.4903 9.34871L70.8303 16.4887L71.2989 16.6633L73.9589 9.52327L73.4903 9.34871ZM71.0646 16.326H70.2046V16.826H71.0646V16.326ZM70.4389 16.6633L73.0989 9.52327L72.6303 9.34871L69.9703 16.4887L70.4389 16.6633ZM72.8646 9.68599H73.7246V9.18599H72.8646V9.68599ZM74.5753 14.636L74.4792 14.4052L74.3253 14.4693V14.636H74.5753ZM78.3453 13.066L78.4414 13.2968L78.9597 13.0809L78.4525 12.8402L78.3453 13.066ZM74.5753 11.276H74.3253V11.434L74.4681 11.5018L74.5753 11.276ZM74.5753 10.496L74.6869 10.2723L74.3253 10.0919V10.496H74.5753ZM79.2853 12.846H79.5353V12.6913L79.3969 12.6223L79.2853 12.846ZM79.2853 13.346L79.3859 13.5749L79.5353 13.5092V13.346H79.2853ZM74.5753 15.416H74.3253V15.7989L74.6759 15.6449L74.5753 15.416ZM74.6714 14.8668L78.4414 13.2968L78.2492 12.8352L74.4792 14.4052L74.6714 14.8668ZM78.4525 12.8402L74.6825 11.0502L74.4681 11.5018L78.2381 13.2918L78.4525 12.8402ZM74.8253 11.276V10.496H74.3253V11.276H74.8253ZM74.4637 10.7197L79.1737 13.0697L79.3969 12.6223L74.6869 10.2723L74.4637 10.7197ZM79.0353 12.846V13.346H79.5353V12.846H79.0353ZM79.1847 13.1171L74.4747 15.1871L74.6759 15.6449L79.3859 13.5749L79.1847 13.1171ZM74.8253 15.416V14.636H74.3253V15.416H74.8253Z" fill="white"/>
</svg>
