<svg width="187" height="187" viewBox="0 0 187 187" fill="none" xmlns="http://www.w3.org/2000/svg">
<path fill-rule="evenodd" clip-rule="evenodd" d="M82.2188 0.673609C35.8997 6.24394 0 45.6795 0 93.5C0 106.512 2.65783 118.902 7.4602 130.159L19.6149 109.107C18.5566 104.071 18 98.8504 18 93.5C18 59.9788 39.8457 31.56 70.077 21.7038L82.2188 0.673609ZM167.11 110.362C168.347 104.94 169 99.2965 169 93.5C169 59.5282 146.563 30.7969 115.699 21.3164L103.71 0.551086C150.546 5.63774 187 45.3117 187 93.5C187 106.894 184.184 119.63 179.111 131.149L167.11 110.362ZM43.4188 150C56.7456 161.822 74.2845 169 93.5 169C112.715 169 130.254 161.822 143.581 150H168.005C150.929 172.482 123.91 187 93.5 187C63.0902 187 36.0711 172.482 18.9953 150H43.4188Z" fill="white"/>
<circle cx="93.5" cy="93.5" r="15.5" fill="white"/>
</svg>
